<svg width="22" height="22" viewBox="0 0 22 22" fill="none" xmlns="http://www.w3.org/2000/svg">
<g clip-path="url(#clip0)">
<path d="M19.25 9.625L18.183 3.75581C18.0049 2.77544 17.1504 2.0625 16.1535 2.0625H5.8465C4.84962 2.0625 3.99575 2.77544 3.817 3.75581L2.75 9.625" stroke="white" stroke-width="1.5" stroke-miterlimit="10" stroke-linecap="round" stroke-linejoin="round"/>
<path d="M6.1875 16.5V19.9375H2.0625V16.5" stroke="white" stroke-width="1.5" stroke-miterlimit="10" stroke-linecap="round" stroke-linejoin="round"/>
<path d="M19.9375 16.5V19.9375H15.8125V16.5" stroke="white" stroke-width="1.5" stroke-miterlimit="10" stroke-linecap="round" stroke-linejoin="round"/>
<path d="M21.3125 16.5H0.6875V12.5421C0.6875 11.9948 0.90475 11.4702 1.29181 11.0839L2.75 9.625H19.25L20.7082 11.0832C21.0953 11.4703 21.3125 11.9948 21.3125 12.5421V16.5Z" stroke="white" stroke-width="1.5" stroke-miterlimit="10" stroke-linecap="round" stroke-linejoin="round"/>
<path d="M4.75 13.4062C4.75 13.5616 4.62408 13.6875 4.46875 13.6875C4.31342 13.6875 4.1875 13.5616 4.1875 13.4062C4.1875 13.2509 4.31342 13.125 4.46875 13.125C4.62408 13.125 4.75 13.2509 4.75 13.4062Z" stroke="white" stroke-width="1.5"/>
<path d="M17.8125 13.4062C17.8125 13.5616 17.6866 13.6875 17.5312 13.6875C17.3759 13.6875 17.25 13.5616 17.25 13.4062C17.25 13.2509 17.3759 13.125 17.5312 13.125C17.6866 13.125 17.8125 13.2509 17.8125 13.4062Z" stroke="white" stroke-width="1.5"/>
</g>
<defs>
<clipPath id="clip0">
<rect width="22" height="22" fill="white"/>
</clipPath>
</defs>
</svg>
