<svg width="22" height="21" viewBox="0 0 22 21" fill="none" xmlns="http://www.w3.org/2000/svg">
<path d="M11 20.125C16.5688 20.125 21.0833 15.8157 21.0833 10.5C21.0833 5.18426 16.5688 0.875 11 0.875C5.43109 0.875 0.916626 5.18426 0.916626 10.5C0.916626 15.8157 5.43109 20.125 11 20.125Z" stroke="white" stroke-width="1.5" stroke-miterlimit="10" stroke-linecap="round" stroke-linejoin="round"/>
<path d="M11 16.1875C11.2531 16.1875 11.4583 15.9916 11.4583 15.75C11.4583 15.5084 11.2531 15.3125 11 15.3125C10.7468 15.3125 10.5416 15.5084 10.5416 15.75C10.5416 15.9916 10.7468 16.1875 11 16.1875Z" stroke="white" stroke-width="1.5" stroke-miterlimit="10" stroke-linecap="round" stroke-linejoin="round"/>
<path d="M11 12.6875V10.5C12.4749 10.5 13.75 9.28287 13.75 7.875C13.75 6.46713 12.4749 5.25 11 5.25C9.90505 5.25 8.85272 6.03094 8.44067 6.93131" stroke="white" stroke-width="1.5" stroke-miterlimit="10" stroke-linecap="round" stroke-linejoin="round"/>
<path d="M10.7083 15.75C10.7083 15.5449 10.8721 15.4375 11 15.4375C11.1278 15.4375 11.2916 15.5449 11.2916 15.75C11.2916 15.9551 11.1278 16.0625 11 16.0625C10.8721 16.0625 10.7083 15.9551 10.7083 15.75Z" fill="white" stroke="white" stroke-width="1.5"/>
</svg>
