<svg width="22" height="22" viewBox="0 0 22 22" fill="none" xmlns="http://www.w3.org/2000/svg">
<path d="M11.0001 14.2084C12.772 14.2084 14.2084 12.7719 14.2084 11C14.2084 9.22811 12.772 7.79169 11.0001 7.79169C9.22817 7.79169 7.79175 9.22811 7.79175 11C7.79175 12.7719 9.22817 14.2084 11.0001 14.2084Z" stroke="white" stroke-width="1.5" stroke-miterlimit="10" stroke-linecap="round" stroke-linejoin="round"/>
<path d="M18.3334 11C18.3325 10.4719 18.2747 9.94548 18.161 9.42977L20.6489 7.54602L18.8155 4.37069L15.9344 5.58619C15.1543 4.87078 14.2283 4.33316 13.2202 4.01044L12.8334 0.916687H9.1667L8.77986 4.01044C7.77178 4.33316 6.84573 4.87078 6.06561 5.58619L3.18453 4.37069L1.3512 7.54602L3.83903 9.42977C3.60941 10.464 3.60941 11.536 3.83903 12.5703L1.3512 14.454L3.18453 17.6294L6.06561 16.4139C6.84573 17.1293 7.77178 17.6669 8.77986 17.9896L9.1667 21.0834H12.8334L13.2202 17.9896C14.2283 17.6669 15.1543 17.1293 15.9344 16.4139L18.8155 17.6294L20.6489 14.454L18.161 12.5703C18.2747 12.0546 18.3325 11.5281 18.3334 11V11Z" stroke="white" stroke-width="1.5" stroke-miterlimit="10" stroke-linecap="round" stroke-linejoin="round"/>
</svg>
